<?xml version="1.0" encoding="iso-8859-1"?>
<!-- Uploaded to: SVG Repo, www.svgrepo.com, Generator: SVG Repo Mixer Tools -->
<svg version="1.1" id="Layer_1" xmlns="http://www.w3.org/2000/svg" xmlns:xlink="http://www.w3.org/1999/xlink" 
	 viewBox="0 0 512 512" xml:space="preserve">
<path style="fill:#414D53;" d="M359.489,411.452l-32.681,92.378h32.681c17.974,0,32.681-14.706,32.681-32.681v-54.468
	L359.489,411.452z"/>
<path style="fill:#57676E;" d="M359.489,471.149v-59.697L256,394.894l-136.17,21.787v54.468c0,17.974,14.706,32.681,32.681,32.681
	h174.298C344.783,503.83,359.489,489.123,359.489,471.149z"/>
<path style="fill:#414D53;" d="M359.489,8.17h-32.681l32.681,92.378l32.681-5.229V40.851C392.17,22.877,377.464,8.17,359.489,8.17z"
	/>
<path style="fill:#57676E;" d="M326.809,8.17H152.511c-17.974,0-32.681,14.706-32.681,32.681v54.468L256,117.106l103.489-16.558
	V40.851C359.489,22.877,344.783,8.17,326.809,8.17z"/>
<polygon style="fill:#F7A676;" points="359.489,95.319 337.702,256 359.489,416.681 392.17,416.681 392.17,95.319 "/>
<rect x="119.83" y="95.319" style="fill:#FEEB5C;" width="239.66" height="321.362"/>
<path d="M359.489,0H152.511c-22.526,0-40.851,18.325-40.851,40.851v54.47c0,4.513,3.657,8.17,8.17,8.17
	c0.042-0.002,264.17-0.002,264.17-0.002v305.021H128V128.002c0-4.513-3.657-8.17-8.17-8.17c-4.513,0-8.17,3.657-8.17,8.17v343.147
	c0,22.526,18.325,40.851,40.851,40.851h206.979c22.526,0,40.851-18.325,40.851-40.851V40.851C400.34,18.325,382.015,0,359.489,0z
	 M128,87.149V40.851c0-13.515,10.996-24.511,24.511-24.511h206.979C373.004,16.34,384,27.336,384,40.851v46.298H128z
	 M359.489,495.66H152.511c-13.515,0-24.511-10.996-24.511-24.511v-46.298h256v46.298C384,484.664,373.004,495.66,359.489,495.66z"/>
<path d="M288.681,452.085h-65.362c-4.513,0-8.17,3.657-8.17,8.17c0,4.513,3.657,8.17,8.17,8.17h65.362c4.513,0,8.17-3.657,8.17-8.17
	C296.851,455.742,293.194,452.085,288.681,452.085z"/>
<circle cx="256" cy="51.745" r="8.17"/>
</svg>